<svg xmlns="http://www.w3.org/2000/svg" width="47" height="47"><path d="M33.847 8.311l-20.5 1.7c-.014 0-.026.008-.04.008h-.135A1.151 1.151 0 0 0 12 11.151v25.721A1.15 1.15 0 0 0 13.172 38h.136c.014 0 .026.008.04.008l.091-.008H32.3a1.15 1.15 0 0 0 1.169-1.131v-.525l.378-.032a1.141 1.141 0 0 0 1.147-1.133V9.444a1.141 1.141 0 0 0-1.147-1.133zm-1.9 28.561a.135.135 0 0 1-.146.12H13.172a.135.135 0 0 1-.146-.12V11.151a.137.137 0 0 1 .146-.121H31.8a.137.137 0 0 1 .146.121v25.721zm2.025-1.693a.124.124 0 0 1-.124.122h-.093l-.788.025V11.151a1.151 1.151 0 0 0-1.167-1.132h-5.9l7.971-.695a.123.123 0 0 1 .1.12v25.735zM27.875 31H17.136A1.166 1.166 0 0 0 16 32.2v.6a1.165 1.165 0 0 0 1.136 1.2h10.739a1.165 1.165 0 0 0 1.131-1.2v-.6a1.166 1.166 0 0 0-1.131-1.2zm.131 1.8a.183.183 0 0 1-.131.2H17.136a.183.183 0 0 1-.136-.2v-.6a.182.182 0 0 1 .131-.2h10.744a.182.182 0 0 1 .131.2v.6zM22.5 27a6.5 6.5 0 1 1 6.5-6.5 6.5 6.5 0 0 1-6.5 6.5zm0-12a5.5 5.5 0 1 0 5.5 5.5 5.5 5.5 0 0 0-5.5-5.5zm1 32A23.5 23.5 0 1 1 47 23.5 23.527 23.527 0 0 1 23.5 47zm0-46A22.5 22.5 0 1 0 46 23.5 22.526 22.526 0 0 0 23.5 1z" fill="#9e9e9e" fill-rule="evenodd"/></svg>