<svg xmlns="http://www.w3.org/2000/svg" width="47" height="47" viewBox="0 0 47 47">
  <defs>
    <style>
      .cls-1 {
        fill: #9e9e9e;
        fill-rule: evenodd;
      }
    </style>
  </defs>
  <path id="icon" class="cls-1" d="M33.847,8.311l-20.5,1.7c-0.014,0-.026.008-0.04,0.008H13.172A1.151,1.151,0,0,0,12,11.151V36.872A1.15,1.15,0,0,0,13.172,38h0.136c0.014,0,.026.008,0.04,0.008L13.439,38H32.3a1.15,1.15,0,0,0,1.169-1.131V36.344l0.378-.032a1.141,1.141,0,0,0,1.147-1.133V9.444A1.141,1.141,0,0,0,33.847,8.311Zm-1.9,28.561a0.135,0.135,0,0,1-.146.12H13.172a0.135,0.135,0,0,1-.146-0.12V11.151a0.137,0.137,0,0,1,.146-0.121H31.8a0.137,0.137,0,0,1,.146.121V36.872Zm2.025-1.693a0.124,0.124,0,0,1-.124.122H33.8l-0.045,0-0.788.025V11.151A1.151,1.151,0,0,0,31.8,10.019H25.9l7.971-.695a0.123,0.123,0,0,1,.1.12V35.179ZM27.875,31H17.136A1.166,1.166,0,0,0,16,32.2v0.6A1.165,1.165,0,0,0,17.136,34H27.875a1.165,1.165,0,0,0,1.131-1.2V32.2A1.166,1.166,0,0,0,27.875,31Zm0.131,1.8a0.183,0.183,0,0,1-.131.2H17.136A0.183,0.183,0,0,1,17,32.8V32.2a0.182,0.182,0,0,1,.131-0.2H27.875a0.182,0.182,0,0,1,.131.2v0.6ZM22.5,27A6.5,6.5,0,1,1,29,20.5,6.5,6.5,0,0,1,22.5,27Zm0-12A5.5,5.5,0,1,0,28,20.5,5.5,5.5,0,0,0,22.5,15Zm1,32A23.5,23.5,0,1,1,47,23.5,23.527,23.527,0,0,1,23.5,47Zm0-46A22.5,22.5,0,1,0,46,23.5,22.526,22.526,0,0,0,23.5,1Z"/>
</svg>
